<svg id="Capa_1" enable-background="new 0 0 512 512" height="512" viewBox="0 0 512 512" width="512" xmlns="http://www.w3.org/2000/svg"><g id="XMLID_99_"><path id="XMLID_2245_" d="m443.689 258.492c.006-.002.016-.005.016-.005l-74.499-90.06c-1.899-2.296-4.725-3.626-7.705-3.626h-211.002c-2.98 0-5.806 1.33-7.705 3.626l-74.499 90.06.008.016c-.543.658-1.019 1.38-1.387 2.178-1.632 3.547-1.05 7.72 1.49 10.686l180 210.139c1.9 2.218 4.674 3.495 7.595 3.495s5.695-1.277 7.595-3.495l180-210.139c2.54-2.965 3.122-7.138 1.49-10.686-.371-.802-.85-1.529-1.397-2.189zm-28.939-3.631h-101.507l-19.318-70.06h62.871zm-205.495 20.001h93.49l-46.745 163.715zm-54.05-90.06h62.871l-19.318 70.06h-101.508zm33.25 90.059 45.361 158.87-136.083-158.87zm89.728 158.87 45.361-158.87h90.723z"/><path id="XMLID_2254_" d="m502 254.862h-26c-5.523 0-10 4.477-10 10s4.477 10 10 10h26c5.523 0 10-4.477 10-10s-4.477-10-10-10z"/><path id="XMLID_2255_" d="m36 254.862h-26c-5.523 0-10 4.477-10 10s4.477 10 10 10h26c5.523 0 10-4.477 10-10s-4.477-10-10-10z"/><path id="XMLID_2256_" d="m74.593 135.537c1.953 1.953 4.512 2.929 7.071 2.929s5.119-.977 7.071-2.929c3.905-3.905 3.906-10.237 0-14.142l-29.631-29.633c-3.906-3.905-10.237-3.905-14.142 0s-3.906 10.237 0 14.142z"/><path id="XMLID_2257_" d="m430.335 138.466c2.559 0 5.119-.977 7.071-2.929l29.632-29.633c3.905-3.905 3.905-10.237 0-14.142s-10.237-3.905-14.142 0l-29.632 29.633c-3.905 3.905-3.905 10.237 0 14.142 1.953 1.953 4.512 2.929 7.071 2.929z"/><path id="XMLID_2274_" d="m256 122.702c5.523 0 10-4.477 10-10v-75.702c0-5.523-4.477-10-10-10s-10 4.477-10 10v75.702c0 5.523 4.477 10 10 10z"/></g></svg>