<svg fill="#ffdd59" id="Layer_1" enable-background="new 0 0 512 512"  viewBox="0 0 512 512"  xmlns="http://www.w3.org/2000/svg"><g><g><path d="m506.576 83.721-116.516-59.971c-20.452-10.527-22.1-11.012-44.082-12.973l-101.792-9.125c-3.517-.315-6.324-.63-8.802-.908-15.366-1.722-17.696-.707-34.238 9.042l-.631.372c-18.316 10.795-34.81 20.229-52.271 30.218-7.649 4.375-15.427 8.824-23.531 13.487-1.075.619-2.075 1.189-3.009 1.721-11.516 6.56-15.186 9.041-23.044 22.285l-34.579 58.272c-2.399 4.043-9.701 16.348-4.336 27.24 2.614 5.307 7.493 8.89 14.539 10.692-2.579 10.786-2.529 21.668.217 31.991 3.43 12.894 11.085 24.521 21.555 32.739.99.777 2.001 1.506 3.021 2.213-5.941 30.338 1.923 58.404 19.666 75.581-4.956-.55-10.073-2.055-16.007-4.746l-88.606-40.177c-3.095-1.404-6.691-1.14-9.548.702-2.856 1.841-4.582 5.007-4.582 8.405v138.606c0 3.746 2.093 7.177 5.424 8.892l116.518 59.971c20.451 10.527 22.099 11.012 44.08 12.973l101.794 9.125c3.517.315 6.324.63 8.801.908 3.804.426 6.808.685 9.428.685 7.962 0 12.364-2.39 24.812-9.728l.63-.371c18.312-10.792 34.801-20.224 52.258-30.21 7.654-4.378 15.436-8.829 23.545-13.496 1.076-.619 2.076-1.188 3.01-1.72 11.515-6.561 15.184-9.041 23.043-22.285l34.579-58.272c2.399-4.043 9.701-16.348 4.336-27.24-1.733-3.52-4.473-6.274-8.17-8.26 3.038-11.351 3.167-22.85.296-33.733-3.407-12.918-11.052-24.572-21.524-32.815-1.025-.807-2.072-1.562-3.129-2.293 5.306-28.962-3.504-57.325-21.495-75.249 3.442.809 7.052 2.078 11.032 3.882l88.604 40.178c1.317.598 2.726.893 4.129.893 1.894 0 3.778-.537 5.419-1.595 2.856-1.841 4.582-5.007 4.582-8.405v-138.609c-.002-3.746-2.095-7.177-5.426-8.892zm-105.743 179.077c-18.168-4.76-38.247-.766-55.536 11.949-4.45 3.271-5.404 9.531-2.133 13.98 3.272 4.45 9.534 5.404 13.98 2.132 20.98-15.427 41.312-10.804 53.343-1.333 10.802 8.501 20.242 25.495 13.966 46.82-19.662-.542-27.09 7.664-40.408 22.401l-28.546 31.586c-1.172 1.298-2.228 2.479-3.193 3.559-8.271 9.254-8.429 9.431-20.983 14.184l-38.339 14.514c-7.198 2.725-10.784 3.922-13.095 3.806-2.471-.123-6.502-1.984-12.873-5.01l-39.486-18.755c-6.658-3.163-9.486-6.209-9.886-7.856-.267-1.101.802-2.714 1.461-3.578l5.616-7.352c6.801-8.901 9.776-8.568 26.308-6.727l43.959 4.885c.063.007.125.013.187.019 17.77 1.627 32.298-9.653 35.356-27.452 2.587-15.063-4.093-32.67-21.864-37.176-.131-.033-.262-.063-.393-.091l-5.409-1.142c-5.408-1.142-10.71 2.317-11.85 7.72-1.141 5.404 2.315 10.709 7.719 11.85l5.178 1.092c6.566 1.785 7.734 9.543 6.907 14.362-.618 3.6-3.176 11.847-13.726 10.93l-43.85-4.873c-17.851-1.989-30.749-3.428-44.416 14.463l-5.615 7.352c-6.246 8.176-6.17 15.62-5.007 20.425 2.063 8.52 9.042 15.658 20.743 21.216l39.486 18.755c18.694 8.88 22.585 9.052 41.63 1.844l38.338-14.514c16.552-6.266 19.17-8.769 28.815-19.561.943-1.056 1.975-2.209 3.12-3.477l28.545-31.586c13.793-15.261 15.562-17.223 31.174-15.341 2.193.264 3.428.638 4.071.9-.155 1.084-.805 3.55-3.407 7.937l-34.579 58.272c-5.509 9.281-6.281 9.722-15.744 15.113-.957.545-1.981 1.128-3.084 1.763-8.095 4.657-15.861 9.1-23.501 13.47-17.515 10.019-34.059 19.482-52.481 30.34l-.631.372c-6.529 3.849-10.47 6.171-12.695 6.784-1.571.433-3.581.239-9.161-.387-2.452-.274-5.505-.617-9.243-.952l-101.802-9.126c-18.938-1.689-18.938-1.689-36.705-10.835l-111.094-57.182v-116.991l74.476 33.771c21.369 9.689 36.363 7.99 56.56 1.467l36.34-11.737c10.85-3.504 16.1-3.563 23.769-2.367 5.448.846 10.57-2.883 11.42-8.341.851-5.457-2.885-10.57-8.342-11.42-11.802-1.838-20.13-1.058-32.993 3.097l-33.358 10.774c-22.075-7.549-33.963-32.707-29.982-61.806 4.977 1.315 10.097 1.982 15.267 1.982 10.489 0 21.174-2.715 31.245-8.116 2.61 3.58 5.798 6.872 9.525 9.732 8.38 6.431 18.172 9.686 28.078 9.686 8.026 0 16.128-2.138 23.607-6.457 4.783-2.761 6.422-8.877 3.66-13.66s-8.878-6.421-13.66-3.66c-9.717 5.61-20.749 4.947-29.511-1.775-7.768-5.961-11.437-14.853-9.347-22.654 1.43-5.335-1.736-10.818-7.071-12.248-5.335-1.431-10.817 1.737-12.247 7.071-1.358 5.07-1.59 10.297-.808 15.42-19.114 11.269-37.169 6.696-48.222-1.98-10.951-8.596-20.529-25.915-13.771-47.643 14.604-1.476 21.734-9.353 33.32-22.173l28.546-31.588c1.173-1.298 2.229-2.479 3.194-3.56 8.271-9.254 8.43-9.431 20.984-14.184l38.339-14.514c7.195-2.724 10.782-3.92 13.094-3.806 2.472.123 6.503 1.984 12.874 5.01l39.486 18.756c6.658 3.162 9.486 6.208 9.885 7.855.267 1.101-.802 2.714-1.461 3.578l-5.615 7.352c-6.8 8.901-9.777 8.569-26.307 6.727l-43.96-4.885c-.063-.007-.125-.013-.187-.019-17.751-1.636-32.299 9.651-35.356 27.452-2.587 15.063 4.093 32.67 21.865 37.176.13.033.261.063.393.091l84.356 17.8c16.31 3.441 25.275 4.361 42.688-1.262l36.105-11.661c23.227 7.843 37.195 34.527 33.955 63.221zm91.167-47.093-74.475-33.771c-10.608-4.81-19.646-6.813-28.528-6.813-9.01 0-17.862 2.062-28.032 5.346l-36.339 11.737c-12.772 4.125-17.855 3.797-32.412.725l-84.124-17.751c-6.567-1.785-7.735-9.542-6.907-14.361.619-3.6 3.196-11.85 13.725-10.93l43.851 4.873c17.853 1.989 30.749 3.427 44.416-14.462l5.614-7.352c6.246-8.176 6.17-15.62 5.007-20.425-2.063-8.52-9.041-15.657-20.742-21.215l-39.486-18.756c-18.696-8.879-22.587-9.052-41.63-1.843l-38.338 14.514c-16.551 6.266-19.17 8.769-28.815 19.561-.944 1.056-1.976 2.209-3.122 3.478l-28.418 31.447-.128.141c-13.789 15.259-15.557 17.221-31.171 15.339-2.194-.264-3.428-.638-4.071-.9.155-1.084.804-3.55 3.407-7.938l34.579-58.273c5.508-9.281 6.281-9.722 15.745-15.113.956-.545 1.98-1.128 3.083-1.763 8.09-4.655 15.852-9.095 23.487-13.462 17.52-10.021 34.066-19.487 52.494-30.348l.633-.373c6.528-3.848 10.469-6.17 12.694-6.783 1.57-.431 3.581-.238 9.161.387 2.452.274 5.505.617 9.243.952l101.801 9.126c18.938 1.689 18.938 1.689 36.706 10.835l111.092 57.179z"/><path d="m256.764 306.654h-.007c-5.522 0-9.996 4.477-9.996 10s4.48 10 10.003 10 10-4.477 10-10-4.478-10-10-10z"/></g></g></svg>